<?xml version="1.0" encoding="UTF-8" standalone="no"?>
<!DOCTYPE svg PUBLIC "-//W3C//DTD SVG 1.1//EN" "http://www.w3.org/Graphics/SVG/1.1/DTD/svg11.dtd">
<svg width="100%" height="100%" viewBox="0 0 288 139" version="1.1" xmlns="http://www.w3.org/2000/svg" xmlns:xlink="http://www.w3.org/1999/xlink" xml:space="preserve" xmlns:serif="http://www.serif.com/" style="fill-rule:evenodd;clip-rule:evenodd;stroke-linejoin:round;stroke-miterlimit:2;">
    <g id="Artboard1" transform="matrix(0.96,0,0,0.463333,0,0)">
        <rect x="0" y="0" width="300" height="300" style="fill:none;"/>
        <g id="black" transform="matrix(1.04167,0,0,2.15827,0,-114.388)">
            <g transform="matrix(1.94413,0,0,1.81694,-29.8266,-99.9754)">
                <text x="21px" y="115.6px" style="font-family:'TwCenMT-CondensedBold', 'Tw Cen MT Condensed', sans-serif;font-weight:700;font-size:27.429px;fill:rgb(38,38,38);">CENTRUM</text>
            </g>
            <g transform="matrix(1.19961,0,0,1.03415,-17.4871,-53.8829)">
                <text x="24.435px" y="208.6px" style="font-family:'TwCenMT-CondensedExtraBold', 'Tw Cen MT Condensed Extra Bold', sans-serif;font-size:66px;fill:rgb(38,38,38);">ST<tspan x="78.898px 115.862px 146.413px " y="208.6px 208.6px 208.6px ">OPA</tspan></text>
            </g>
        </g>
        <g transform="matrix(0.18324,0,0,0.379664,208.333,34.5324)">
            <g transform="matrix(1.03788,0,0,0.998696,-408.825,-393.716)">
                <path d="M592.216,573.063C597.757,540.989 592.952,519.761 570.034,507.015C529.422,484.432 479.498,507.787 456.065,527.326C432.499,546.975 416.813,562.197 410.813,593.348C405.108,622.979 409.042,644.553 417.398,668.693C424.847,690.314 434.268,711.065 443.099,732.104C453.459,756.833 457.263,826.769 458.502,833.672C462.601,856.845 476.585,872.934 496.755,883.099C508.917,889.198 521.96,889.187 534.452,885.988C563.101,878.647 574.114,866.582 581.479,846.929C589.994,824.195 582.569,795.324 569.794,774.354C562.751,762.867 552.173,736.582 549.094,727.614C539.263,698.796 545.505,677.481 556.533,649.491C563.206,632.558 587.604,599.759 592.216,573.063Z" style="fill:rgb(29,160,214);fill-rule:nonzero;"/>
            </g>
            <g transform="matrix(1,0,0,1,-393.365,-394.365)">
                <path d="M585.772,469.737C592.284,457.751 593.868,444.36 592.492,428.657C591.983,426.404 591.359,422.574 590.297,418.858C589.448,415.773 588.274,412.735 586.958,409.859C578.51,391.281 562.433,389.104 551.487,404.987C540.585,420.838 540.034,452.626 550.388,469.913C560.555,486.865 576.45,486.847 585.772,469.737Z" style="fill:rgb(29,160,214);fill-rule:nonzero;"/>
            </g>
            <g transform="matrix(1,0,0,1,-393.365,-394.365)">
                <path d="M502.282,477.45C510.159,487.927 520.789,487.829 528.007,477.265C537.464,463.419 537.158,438.109 527.341,423.896C518.617,411.249 505.93,412.022 498.861,425.793C494.259,434.736 493.094,444.709 494.339,455.176C495.271,464.216 497.951,471.697 502.282,477.45Z" style="fill:rgb(29,160,214);fill-rule:nonzero;"/>
            </g>
            <g transform="matrix(1,0,0,1,-393.365,-394.365)">
                <path d="M465.218,493.432C473.184,499.962 481.563,497.387 485.271,487.221C488.112,479.419 487.559,471.346 485.839,463.23C483.438,455.059 480.079,447.653 473.793,442.641C466.112,436.535 458.05,439.081 454.28,448.635C448.869,462.395 454.243,484.472 465.218,493.432Z" style="fill:rgb(29,160,214);fill-rule:nonzero;"/>
            </g>
            <g transform="matrix(1,0,0,1,-393.365,-394.365)">
                <path d="M435.153,518.005C442.083,522.145 448.438,518.75 450.579,510.206C453.474,498.655 447.006,481.78 437.556,476.333C430.44,472.238 423.66,475.451 421.94,484.335C421.174,488.415 421.546,492.808 421.391,497.059C424.031,506.129 427.88,513.657 435.153,518.005Z" style="fill:rgb(29,160,214);fill-rule:nonzero;"/>
            </g>
            <g transform="matrix(1,0,0,1,-393.365,-394.365)">
                <path d="M421.414,536.898C422.51,526.321 414.837,512.608 405.964,509.373C399.284,506.95 393.792,510.872 393.386,518.923C393.218,522.619 394.079,526.404 394.465,530.148C397.866,537.656 402.125,543.623 408.974,546.234C415.495,548.737 420.596,544.732 421.414,536.898Z" style="fill:rgb(29,160,214);fill-rule:nonzero;"/>
            </g>
            <g transform="matrix(1.02083,0,0,1,-405.423,-394.365)">
                <path d="M749.628,648.136C729.204,625.477 683.103,595.264 639.698,611.854C615.203,621.217 607.436,641.555 608.366,674.082C609.138,701.166 628.639,737.096 632.839,754.807C639.784,784.081 642.934,806.061 629.113,833.191C624.79,841.633 610.589,866.147 601.99,876.519C586.366,895.467 574.918,922.989 580.12,946.703C584.618,967.204 593.812,980.714 621.128,992.044C633.037,996.981 645.946,998.842 658.852,994.535C680.263,987.337 696.391,973.395 703.733,951.036C705.943,944.38 719.63,875.693 733.398,852.679C745.125,833.112 757.397,813.907 767.843,793.563C779.54,770.85 786.489,750.051 785.047,719.921C783.534,688.225 770.166,670.937 749.628,648.136Z" style="fill:rgb(90,218,117);fill-rule:nonzero;"/>
            </g>
            <g transform="matrix(1,0,0,1,-393.365,-394.365)">
                <path d="M664.414,577.914C677.113,562.275 681.085,530.734 672.538,513.498C663.962,496.214 647.729,496.09 636.734,513.281C635.023,515.945 633.429,518.776 632.153,521.72C630.57,525.242 629.41,528.944 628.592,531.106C624.999,546.452 624.661,559.93 629.407,572.722C636.207,590.978 651.94,593.255 664.414,577.914Z" style="fill:rgb(90,218,117);fill-rule:nonzero;"/>
            </g>
            <g transform="matrix(1,0,0,1,-393.365,-394.365)">
                <path d="M710.96,592.207C716.062,587.124 719.779,580.099 721.987,571.284C724.708,561.103 724.965,551.066 721.674,541.56C716.633,526.923 704.188,524.357 693.755,535.639C682.026,548.315 678.126,573.325 685.522,588.374C691.169,599.853 701.675,601.46 710.96,592.207Z" style="fill:rgb(90,218,117);fill-rule:nonzero;"/>
            </g>
            <g transform="matrix(1,0,0,1,-393.365,-394.365)">
                <path d="M745.38,613.286C757.515,605.976 765.97,584.886 762.565,570.496C760.19,560.505 752.57,556.842 744.105,561.796C737.167,565.859 732.79,572.712 729.251,580.467C726.4,588.256 724.708,596.164 726.413,604.293C728.641,614.884 736.567,618.62 745.38,613.286Z" style="fill:rgb(90,218,117);fill-rule:nonzero;"/>
            </g>
            <g transform="matrix(1,0,0,1,-393.365,-394.365)">
                <path d="M757.488,631.968C758.399,640.731 764.21,644.994 771.649,641.875C779.475,638.606 784.344,631.697 788.245,623.098C788.698,618.867 789.689,614.573 789.514,610.425C789.069,601.39 782.816,597.239 775.188,600.283C765.061,604.34 756.27,620.13 757.488,631.968Z" style="fill:rgb(90,218,117);fill-rule:nonzero;"/>
            </g>
            <g transform="matrix(1,0,0,1,-393.365,-394.365)">
                <path d="M801.771,637.479C792.53,639.419 782.984,651.904 782.573,662.531C782.268,670.4 786.752,675.089 793.561,673.537C800.71,671.924 805.775,666.624 810.209,659.68C811.121,656.02 812.506,652.398 812.871,648.719C813.604,640.69 808.729,636.024 801.771,637.479Z" style="fill:rgb(90,218,117);fill-rule:nonzero;"/>
            </g>
        </g>
    </g>
</svg>
