<?xml version="1.0" encoding="UTF-8" standalone="no"?>
<!DOCTYPE svg PUBLIC "-//W3C//DTD SVG 1.1//EN" "http://www.w3.org/Graphics/SVG/1.1/DTD/svg11.dtd">
<svg width="100%" height="100%" viewBox="0 0 198 133" version="1.1" xmlns="http://www.w3.org/2000/svg" xmlns:xlink="http://www.w3.org/1999/xlink" xml:space="preserve" xmlns:serif="http://www.serif.com/" style="fill-rule:evenodd;clip-rule:evenodd;stroke-linejoin:round;stroke-miterlimit:2;">
    <g transform="matrix(0.783193,0,0,0.754936,-320.851,-101.519)">
        <clipPath id="_clip1">
            <path d="M630.178,257.432C625.159,258.749 617.138,256.056 611.179,257.989C605.138,259.95 600.912,269.047 597.057,272.051C568.885,294.006 642.416,311.704 653.62,300.695C657.996,296.397 657.134,288.83 655.517,282.999C653.786,276.76 659.443,268.659 655.384,263.554C651.357,258.487 639.451,254.999 630.178,257.432ZM437.13,291.478C436.35,290.946 435.152,290.899 433.335,292.61C430.23,296.031 423.329,298.446 419.073,297.287C414.654,297.222 412.365,301.673 420.201,301.673C426.6,301.673 428.35,298.939 435.373,301.604C437.931,302.573 438.862,300.474 438.029,298.382C437.039,295.897 439.206,292.895 437.13,291.478ZM448.161,292.011C449.554,292.011 463.202,287.653 463.906,286.21C464.869,284.233 470.587,281.133 468.483,286.724C467.47,289.413 467.074,291.585 468.632,293.957C468.835,294.266 469.357,296.023 469.562,296.043C471.082,300.428 464.595,301.599 462.992,298.507C461.105,294.873 448.636,296.245 445.724,299.434C444.037,301.284 441.321,301.266 440.516,299.95C439.679,298.952 439.91,291.415 440.57,290.644C442.587,288.281 443.15,292.011 448.161,292.011ZM479.48,283.746C475.725,282.896 472.109,282.886 471.578,287.336C470.65,295.13 475.559,300.335 479.181,298.156C486.662,293.656 502.696,284.347 518.315,285.623C523.336,284.976 538.831,291.966 538.831,286.352C538.831,281.406 533.666,270.729 532.858,264.15C531.471,252.876 517.286,269.774 509.794,273.514C500.248,278.281 484.113,284.793 479.48,283.746ZM543.301,252.147C552.937,250.506 554.13,251.127 559.677,258.123C567.598,268.11 567.756,280.675 562.164,282.84C558.901,284.101 545.079,290.636 543.241,288.059C542.15,286.528 538.668,269.156 536.136,264.767C532.312,258.137 538.299,252.998 543.301,252.147ZM557.261,251.399C559.187,245.186 573.101,253.654 575.965,255.478C579.515,257.738 580.715,260.092 581.376,262.751C583.123,269.779 588.991,272.365 577.728,276.836C572.828,278.781 568.45,279.727 568.675,273.943C568.802,270.724 567.22,264.825 564.732,260.468C562.11,255.873 556.813,252.847 557.261,251.399ZM572.227,249.012C574.313,253.735 582.415,254.414 583.534,258.502C584.555,262.238 586.252,268.768 589.062,270.24C596.871,274.326 601.722,253.458 615.607,253.458C618.232,253.458 622.16,254.298 626.462,254.298C634.486,254.298 629.149,244.038 627.046,240.673C623.465,234.942 618.206,232.361 616.461,231.857C608.458,238.342 601.441,236.408 592.985,232.847C587.293,233.674 587.388,238.808 581.892,242.416C575.671,246.501 570.272,244.588 572.227,249.012ZM590.303,141.333C589.807,134.749 614.512,150.862 613.846,157.762C610.564,191.773 628.561,224.38 617.789,227.312C615.094,229.783 609.853,232.834 604.627,232.834C599.403,232.834 597.437,230.575 595.021,230.223C576.122,227.461 589.157,203.183 589.157,189.167C591.64,174.973 591.661,159.37 590.303,141.333Z"/>
        </clipPath>
        <g clip-path="url(#_clip1)">
            <path d="M569.306,283.333C568.151,285.306 566.46,286.917 564.096,287.832C561.157,288.969 558.296,290.308 555.325,291.43C551.246,292.971 544.572,295.517 540.502,292.76C536.481,294.998 530.546,293.406 526.431,292.416C524.852,292.036 520.472,290.82 518.984,290.934C518.595,290.984 518.27,290.99 517.879,290.958C505.472,289.945 492.308,296.505 481.94,302.743C480.671,303.507 479.246,303.944 477.763,304.002C476.018,304.07 474.396,303.624 472.959,302.823C469.157,306.861 461.964,306.439 458.793,301.887C456.661,301.31 451.085,302.068 449.585,303.144C447.287,305.584 443.646,306.747 440.518,306.026C438.695,307.269 436.217,307.649 433.473,306.608C431.624,305.907 430.281,305.603 428.335,305.936C425.421,306.437 423.279,307.027 420.201,307.027C405.153,307.027 407.534,291.764 419.152,291.935C419.624,291.941 420.026,291.998 420.479,292.123C422.877,292.774 427.735,290.815 429.371,289.012C429.47,288.903 429.556,288.813 429.664,288.712C431.93,286.58 434.86,285.282 437.737,285.969C438.916,285.045 440.314,284.496 441.901,284.507C445.003,284.529 445.983,286.458 447.867,286.644C450.274,286.139 457.502,283.735 459.952,282.49C460.686,281.536 461.618,280.71 462.587,280.046C465.755,277.881 468.966,277.758 471.214,279.059C474.141,277.546 477.505,277.81 480.529,278.501C483.467,278.792 493.769,274.764 496.686,273.567C500.304,272.082 503.904,270.472 507.403,268.725C509.886,267.484 513.06,264.673 515.257,262.895C519.208,259.696 525.321,254.36 530.936,255.05C533.002,250.899 537.267,247.744 542.403,246.87C547.588,245.987 551.063,245.714 554,246.559C554.311,246.219 554.656,245.903 555.03,245.617C558.195,243.189 562.589,243.542 566.932,244.967C567.054,244.659 567.202,244.353 567.378,244.051C568.902,241.433 571.397,240.749 574.075,239.995C575.841,239.498 577.406,238.959 578.955,237.942C581.375,236.353 582.71,233.582 584.714,231.426C583.793,230.61 582.963,229.664 582.245,228.572C577.549,221.448 579.766,211.127 581.45,203.351C582.39,199.004 583.804,193.589 583.804,189.167C583.804,188.842 583.829,188.564 583.884,188.244C586.542,173.058 586.119,157.053 584.964,141.735C584.821,139.805 585.389,137.929 586.737,136.511C592.126,130.841 603.129,138.443 607.76,141.927C612.398,145.416 619.795,151.834 619.174,158.276C617.794,172.571 620.339,186.627 623.318,200.544C624.461,205.888 625.817,211.504 626.398,216.933C626.863,221.254 626.849,226.264 623.801,229.664C626.967,231.909 629.782,234.949 631.585,237.835C632.786,239.756 633.874,241.877 634.691,243.988C635.582,246.284 636.24,248.86 636.061,251.333C644.732,251.203 654.708,254.1 659.574,260.223C660.489,261.374 661.173,262.668 661.614,264.068C662.874,268.063 661.971,271.982 661.149,275.939C660.835,277.44 660.256,280.063 660.675,281.567C662.774,289.134 663.461,298.531 657.373,304.514C649.433,312.314 628.433,309.036 618.745,306.717C607.7,304.074 586.975,297.064 585.409,283.634C585.205,281.877 585.348,280.212 585.763,278.641C583.945,280.004 581.751,280.999 579.704,281.811C576.495,283.085 572.699,284.311 569.306,283.333Z" style="fill:rgb(26,213,247);"/>
        </g>
    </g>
</svg>
